<svg xmlns="http://www.w3.org/2000/svg" viewBox="0 0 1080 1920"><defs><style>.cls-1{fill:#f9f6de;}.cls-2{fill:#4b846a;}.cls-3{fill:#f15f5b;}.cls-4{fill:#ffcadd;}.cls-5{fill:#3e3431;}.cls-6{fill:#fffa14;}.cls-7{fill:#fff;}.cls-8{fill:#cd5257;}.cls-9{fill:#3a3206;}.cls-10{fill:#296636;}.cls-11{fill:#3c6c8c;}.cls-12{fill:#dcdce5;}.cls-13{fill:#e4b69d;}.cls-14{font-size:29.83px;font-family:Courier, Courier;}</style></defs><title>InstructionsBG</title><g id="Hori"><rect class="cls-1" x="0.65" y="-1.38" width="1080" height="1920"/></g><g id="Layer_4" data-name="Layer 4"><path class="cls-2" d="M412.79,302.25s-18.67-1-28.6-3.08l9.79-85.7c4.36.43,8.5.7,12.6,1.25,11.74,1.58,23.62,2.57,35.15,5.12,12.08,2.67,23.36,7.62,32.21,17,14.2,15,11.93,46.51-9.57,57.53-10.54,5.41-21.8,7-33.33,7.68C425.13,302.38,419.2,302.2,412.79,302.25Zm1.42-25.76c4.53.44,8.44,1.13,12.35,1.13,5.34,0,10.68-.58,15.35-3.62,7.22-4.69,7.82-14.46.92-19.34-8.19-5.8-17.85-5.32-27.44-6.24Z"/><path class="cls-2" d="M361.87,317.72c-21.4,3.68-7.14.62-28.48,4.29-.48-7.31-.94-14.22-1.39-21.13-.39-6,.6-18,.38-24.05,0,.26-19.75-3.88-19.75-3.88-5,10-11.78,25.74-17,35.62-.48.91-1,1.79-1.65,2.92l-26.89-16.21c5.09-8.6,10-17,15-25.36q18.43-31,36.85-62.09l28.12-3.4Zm-41.37-61.59,7.35,1.93-.62-12.59-.66-.17Z"/><path class="cls-2" d="M145.68,289.9l29.8,3.16s29-64.2,30.39-65.62c.65,4.57,9.93,87.34,9.93,87.34,10.5-1.26,21.05-2.08,32.26-3.14L230.48,190.32c-3.23.38-41.85,2.6-41.85,2.6s-26.41,41.35-27.45,43.68c-2.26-7.87-4.23-14.66-6.17-21.46-2.46-8.62-5-17.23-7.29-25.89l-49.08-2.16L62.72,307.61l37.17,6.14,26.5-83Z"/><path class="cls-2" d="M524.84,337.54l-3.4-185.25,39.27-.33c.12,14-5.56,55-5.56,55l49.43-51.91L630.52,162l-62.24,82.9,70,44.15L616,313.21l-62.48-35.37,10.64,54.65Z"/><path class="cls-2" d="M744.5,297.15c-19.25,10.05-6.6,2.78-25.79,12.8-2.7-6.81-5.25-13.25-7.79-19.69-2.22-5.62-4.52-11.21-6.57-16.89-.79-2.18-2-2.74-4.14-2.47a103.25,103.25,0,0,1-11.45.93c-2.84,0-3.95,1-4.4,3.89-1.72,11-3.76,22-5.69,33-.18,1-.42,2-.68,3.29l-30.56-7.19c2.21-9.74,4.36-19.24,6.53-28.74q8-35.19,16.06-70.39l25.72-11.85Zm-58.24-46,7.58-.41L689.4,239l-.68,0Z"/><path class="cls-2" d="M838.77,276.67l-17.63-2.58S800,233.95,799,232.73c-.83,3.55-13.75,67.69-13.75,67.69s-17.8-.14-26.54-1.77l23.3-98c2.52.53,14,3.05,23.65,5l27.19,40.57s23.92-37.44,25.77-37.1c9,1.69,9,1.6,18.66,3.34l17.17,98-21.42,1.59L862.52,240Z"/><path class="cls-2" d="M945.87,284.32l-3,45.5-29.2-5.07,10.6-128.57c4.37.29,8.52.43,12.63.86,11.78,1.21,25.16,2.22,36.76,4.4-6.59,5.73.69,14.77,7.43,12.13-5.38,8.48,5.85,19.9,15.13,13.37-.65,5.08,5.32,12.42,15.1,7.22,5.15,10.4,7,29-14.16,40.66-10.37,5.74-21.57,7.72-33.07,8.72C958.22,284.05,952.28,284.06,945.87,284.32Zm.61-25.79c4.54.3,8.47.86,12.38.74,5.34-.17,10.66-.92,15.23-4.1,7.07-4.91,7.36-14.7.31-19.36-8.37-5.54-18-4.76-27.62-5.38Z"/><path class="cls-3" d="M638.06,417a52,52,0,0,1-6.13-.74c-6.45-1.54-10.31-5.82-11.85-12.13-2.73-11.16,3.69-24.12,14.25-28.61,9.53-4.05,17.83-2.32,23.82,6.83a24.7,24.7,0,0,1,4,17.23c-.78,6-4.22,10.17-9.27,13.2A30.39,30.39,0,0,1,638.06,417Zm9.81-20.53a7.15,7.15,0,0,0-7.73-7.42,12.18,12.18,0,0,0-4.31,1.4c-3.42,1.82-4.63,4.82-3.84,8.9.6,3.09,2.18,4.35,6.28,5A8.17,8.17,0,0,0,647.87,396.51Z"/><path class="cls-3" d="M714.43,416.26c-4.44.4-8.68.81-12.94,1.11a2.2,2.2,0,0,1-1.5-.83c-4-4.76-7.9-9.55-11.85-14.34a3.56,3.56,0,0,0-1.19-1c.23,1.39.45,2.78.7,4.17.94,5.18,1.86,10.36,2.87,15.52.22,1.15,0,1.59-1.18,1.81-3.18.6-6.33,1.34-9.69,2.07l-6.34-38.45,2.7-.52c3.75-.72,7.51-1.41,11.26-2.17a1.65,1.65,0,0,1,1.83.68c2.6,3.15,5.25,6.27,7.88,9.39.25.3.52.59,1,1.17-.07-2.5-.12-4.66-.19-6.82-.08-2.76-.14-5.52-.27-8.28a1.12,1.12,0,0,1,.88-1.15c3.47-.75,6.93-1.53,10.63-2.35Z"/><path class="cls-3" d="M335.48,409.44c-4.39-.74-8.6-1.41-12.8-2.19a2.2,2.2,0,0,1-1.24-1.18c-2.64-5.61-5.23-11.24-7.84-16.86a3.56,3.56,0,0,0-.89-1.27c-.13,1.4-.27,2.81-.37,4.21-.4,5.25-.82,10.49-1.14,15.74-.07,1.17-.4,1.54-1.6,1.46-3.23-.22-6.46-.3-9.9-.45l3.57-38.81,2.75.18c3.81.25,7.63.53,11.44.74a1.65,1.65,0,0,1,1.6,1.12c1.72,3.71,3.5,7.39,5.25,11.08.17.36.36.7.71,1.4.57-2.44,1.06-4.54,1.54-6.65.62-2.69,1.26-5.38,1.82-8.08a1.12,1.12,0,0,1,1.15-.89c3.54.15,7.09.27,10.88.41Z"/><path class="cls-3" d="M455.93,399.2l7.75,8.18L456,414.52l-11.27-9.42,3.69,17.13-10.73,4.11-11-44.83c2.22-1,4.42-2.14,6.68-3.1,4.93-2.11,9.92-4.08,15.32-4.54a28.21,28.21,0,0,1,6.84.23c8.43,1.37,12.83,13.64,5.83,20.52C459.73,396.25,457.82,397.62,455.93,399.2Zm-13.52-3.7a67.37,67.37,0,0,0,6.86-3.31c2.22-1.39,2.4-3.73.59-5.65a5.68,5.68,0,0,0-2.71-1.6,10.6,10.6,0,0,0-6.48.84Z"/><path class="cls-3" d="M376.11,378.32,369,385.84a17.13,17.13,0,0,0-1.47-1.44,28.45,28.45,0,0,0-3.7-2.65,3.81,3.81,0,0,0-4.84,5.57,16.86,16.86,0,0,0,3.66,3.51,47,47,0,0,0,5.64,3.16c3.47,1.76,6.72,3.82,8.25,7.58a16.09,16.09,0,0,1,1.21,5.73,17.69,17.69,0,0,1-4.05,11.75c-3.76,4.52-8.88,5.13-14.26,4.31a16.94,16.94,0,0,1-5.37-2c-4.37-2.38-7.79-5.88-11-9.84l8.37-6.9a48.69,48.69,0,0,0,3.4,3.67,33.26,33.26,0,0,0,4.9,3.75,5,5,0,0,0,5.94-.15c2.27-1.69,2.66-3.77,1-6.05a23.08,23.08,0,0,0-7-5.65,29,29,0,0,1-8-6.73c-3.92-4.94-4.55-10.44-2.49-16.27a12.79,12.79,0,0,1,18.78-6A35.65,35.65,0,0,1,376.11,378.32Z"/><path class="cls-3" d="M758.86,391.1l-17.16-4.58-2,7.68L750,397l-1.53,5.52-9-2.33-2.76,10.25L756,415.62l-1.49,7.76L724,419.87l8.84-43.08,24.77,2Z"/><path class="cls-3" d="M599.15,423.71l5.74-37.1,10.75,2.4-8,37.76Z"/><path class="cls-3" d="M279.16,421l-4.91-63.37c6.24-.07,7.92-.66,14.21-.73L290,422.2Z"/><path class="cls-3" d="M594.58,389.11l-11.69,1.38c-.18,7.55,1.65,24.58,1.47,32.14l-11,.36c.61-8.28-.78-26.08-.16-34.46l-12.76-1.41c.3-2.7.55-5.24.9-7.77,0-.27.68-.63,1.06-.64,7.64-.2,15.28-.36,22.91-.53,1.71,0,3.41-.14,5.12-.12a1.37,1.37,0,0,1,1.07.63C592.58,382.08,593.54,385.49,594.58,389.11Z"/><path class="cls-3" d="M790.27,397.39l5,10.08-9.43,4.6-8-12.3-1.46,17.46-11.46.81L767.49,372c2.43-.35,4.85-.76,7.29-1,5.33-.58,10.68-1,16,.12a28.21,28.21,0,0,1,6.48,2.22c7.66,3.76,8.3,16.78-.4,21.32C794.77,395.69,792.54,396.44,790.27,397.39Zm-11.85-7.47a67.37,67.37,0,0,0,7.53-1.17c2.53-.68,3.38-2.87,2.21-5.23A5.68,5.68,0,0,0,786,381.2a10.6,10.6,0,0,0-6.44-1.08Z"/><path class="cls-3" d="M524.78,427.31,519.34,374l11.31-1c.37,4-.28,16-.28,16l13-16.15,7.64,1.37-15.94,25.39,21.23,11-5.84,7.51-18.86-8.69L536,424.91Z"/><path class="cls-3" d="M380.44,378.88l2.18-10.72,40.77,5.94-2.12,9.53h-9l-6.11,26.66-9.44-1.08,4-27.47Z"/><path class="cls-3" d="M471.37,384.74s-1.17,17.08,0,23.5c1,5.69,3.86,12.15,9.5,15.25,4.67,2.56,15.51,1.46,20.5-1,4.65-2.27,7.5-10,6.75-17.68-.46-4.69-3.42-20.11-3.42-20.11L492.45,387s2.69,17.19,2.13,20.63c-.74,4.47-6,5.63-8.87,3.38s-2.42-8.65-2.67-10.9,0-14.48,0-14.48Z"/></g><g id="Layer_6" data-name="Layer 6"><rect class="cls-4" x="-1.29" y="547.7" width="701.35" height="333.92"/><rect class="cls-4" x="-1.29" y="1019.12" width="917.29" height="356.02"/><rect class="cls-5" x="-1.29" y="1010.2" width="948.27" height="8.84"/><circle class="cls-5" cx="353.64" cy="826" r="5.39"/><circle class="cls-6" cx="512.42" cy="869.26" r="5.39"/><circle class="cls-6" cx="69.28" cy="864.13" r="5.39"/><circle class="cls-6" cx="94.04" cy="761.4" r="5.39"/><circle class="cls-6" cx="54.15" cy="761.4" r="5.39"/><circle class="cls-6" cx="610.54" cy="796.15" r="5.39"/><circle class="cls-6" cx="610.54" cy="665.66" r="5.39"/><circle class="cls-6" cx="422.35" cy="665.66" r="5.39"/><circle class="cls-6" cx="416.96" cy="796.15" r="5.39"/><circle class="cls-6" cx="311.16" cy="870.05" r="5.39"/><rect class="cls-7" x="510.25" y="547.7" width="4.33" height="259.31"/><rect class="cls-7" x="510.99" y="622.26" width="4.33" height="373.83" transform="translate(1322.32 296.03) rotate(90)"/><rect class="cls-7" x="510.99" y="490.44" width="4.33" height="373.83" transform="translate(1190.5 164.21) rotate(90)"/><rect class="cls-7" x="94.09" y="679.88" width="4.33" height="195.09" transform="translate(873.68 681.17) rotate(90)"/><rect class="cls-7" x="326.24" y="547.7" width="4.33" height="333.92"/><rect class="cls-7" x="193.8" y="547.06" width="4.33" height="333.92"/><rect class="cls-7" x="71.88" y="548.36" width="4.33" height="228.26"/></g><g id="Layer_5" data-name="Layer 5"><path class="cls-8" d="M400,986.41c-35.34-.65-50.27-49.66-37.73-82.19S413,840.78,445,868.43c48,41.54-7.56,65.67-7.56,65.67S477.5,987.83,400,986.41Z"/><path class="cls-9" d="M437.85,933s17.77-6.52,24-3.63c4.87,2.28,12.18,10,12.18,10l2-3.33s-10.28-8.87-13.68-9.59C453.53,924.6,437.85,933,437.85,933Z"/><path class="cls-10" d="M437.84,933s28.23-4.18,25.49,17.71-4.51,19.06-4.51,19.06-14.6-4.91-17.77-14.38S437.84,933,437.84,933Z"/><path class="cls-11" d="M583.71,920.24c43,29.57,106.29,460.24,81.46,495.91s-255.8,67.92-290.5,55-113.56-475.38-95.45-506S540.75,890.67,583.71,920.24Z"/><path class="cls-12" d="M397.8,1379c-28.3-18.07-97.44-361.55-85.21-394.48s205.74-61.07,237-45,100.08,362.87,87,394.48S426.1,1397.12,397.8,1379Z"/><path class="cls-8" d="M147,678.88c-11.39-11-1.27-31.69,12.81-38.51s36.07-5.26,38.07,13.59c3,28.33-22.6,19.22-22.6,19.22S172,703.08,147,678.88Z"/><path class="cls-9" d="M188.19,647.11s7.83,3.31,9,6.15c.9,2.24.93,7,.93,7l1.67-.48s-.65-6.06-1.55-7.34C195.9,649.16,188.19,647.11,188.19,647.11Z"/><path class="cls-10" d="M188.17,647.12s10.54,7.28,2.93,13.62-7.32,4.87-7.32,4.87-3.28-6.09-1.42-10.16A38.38,38.38,0,0,1,188.17,647.12Z"/><path class="cls-8" d="M588.65,1182.17c36.66,28,14.43,91.11-23.93,115.61s-102.41,27.46-114.61-26.33c-18.33-80.82,58.76-63.2,58.76-63.2S508.31,1120.75,588.65,1182.17Z"/><path class="cls-9" d="M507.56,1209.1s-23.73-6.89-28-14.72c-3.36-6.17-5.07-19.95-5.07-19.95l-4.66,2s3.94,17.28,7,20.67C484.58,1205.77,507.56,1209.1,507.56,1209.1Z"/><path class="cls-10" d="M507.61,1209.06s-32.92-17.44-13.09-38.35,19.5-16.55,19.5-16.55,11.56,16.46,7.56,28.87S507.61,1209.06,507.61,1209.06Z"/><path class="cls-8" d="M532,1086.13c.56,37.5-50.9,55.06-85.84,42.91s-69.07-51.55-40.88-86.41c42.36-52.38,69.92,5.7,69.92,5.7S530.81,1003.93,532,1086.13Z"/><path class="cls-9" d="M474,1047.92s-7.54-18.62-4.69-25.28c2.25-5.25,10.18-13.27,10.18-13.27l-3.6-2s-9,11.21-9.69,14.85C464.6,1031.58,474,1047.92,474,1047.92Z"/><path class="cls-10" d="M474.08,1047.93s-5.43-29.79,17.89-27.66,20.37,4.12,20.37,4.12-4.69,15.66-14.62,19.35S474.08,1047.93,474.08,1047.93Z"/><path class="cls-13" d="M1078.71,1650.81s-383.69-108.13-386-224.39c-.79-39.3,35-53.62,32-116-.83-17.5-3.36-72.58-58.33-103-48.53-26.86-99.55-6.42-120.33,22.33-28.67,39.67,6,95,47.67,99.67,31.85,3.57,65-25,65-25s17.5,90,6.5,105-273,71-290.5,55-23.33-54.67-23.33-54.67,49.51,20.47,61.33-42.67c5.19-27.7-28-58.67-28-58.67,39.36-9.68,54-72-2.5-97.5,0,0,30.41,9.34,37.83-23.17,14.92-65.35-91.12-133.82-131.33-123.33-61.33,16-32,86-32,86s-25.29,6.88-34,20c-11.44,17.24-9.08,53.71,6.5,70.5,13.08,14.1,27,28,27,28a46.91,46.91,0,0,0-25.5,21c-1.41,2.42-4.76,14.35.11,39.83,4.84,25.31,14.22,38,23.89,50.67,58.36,76.7,361.43,224.15,540,398,43.26,42.12,125.26,143,125.26,143h158.78Z"/><path class="cls-12" d="M553,1411c1.26,10.35-15.49,28.91-26.59,26.47-12-2.63-20.22-9.92-23.38-22.67-2.63-10.63,6.59-25.84,20.61-28.56C533.4,1384.32,551.29,1396.54,553,1411Z"/><path class="cls-11" d="M518.89,1404.12c-.11,5.12,2.65,16.62,2.65,16.62.15.94,1.48,2.51,3,1.67,3.91-2.18,11.09-8,13.53-11.75.45-.7,0-2.6-1.67-3.44-3.52-1.77-10.39-4.33-13.87-5.73A2.77,2.77,0,0,0,518.89,1404.12Z"/><path class="cls-8" d="M278.79,744c-14.41,14.28-40.54.8-48.91-17.37s-5.8-46.25,18.35-48.33c36.3-3.12,24,29.39,24,29.39S310.37,712.7,278.79,744Z"/><path class="cls-9" d="M271.94,707.06s4.43-9.92,8.09-11.31c2.89-1.09,9-1,9-1l-.57-2.15s-7.76.68-9.42,1.79C274.77,697.25,271.94,707.06,271.94,707.06Z"/><path class="cls-10" d="M272,707.08s9.57-13.29,17.49-3.4,6,9.48,6,9.48-7.86,4-13,1.56S272,707.08,272,707.08Z"/><path class="cls-8" d="M322.51,824.78c-13-15.57,2.65-40.46,21.47-47.25s46.57-1.84,46.59,22.4c0,36.43-31.32,21.4-31.32,21.4S351,858.9,322.51,824.78Z"/><path class="cls-9" d="M359.89,821.1s9.51,5.26,10.58,9c.84,3,.24,9,.24,9l2.19-.39s0-7.79-1-9.54C369.41,824.75,359.89,821.1,359.89,821.1Z"/><path class="cls-10" d="M359.86,821.1s12.42,10.67,1.9,17.71-10,5.2-10,5.2-3.36-8.18-.44-13.11S359.86,821.1,359.86,821.1Z"/><path class="cls-8" d="M130,547.7s-37.27,39-50.6,37.13c-20-2.75,5.85-37.13,5.85-37.13H58c-3.63-4.62.12,55.3-44.13,14.52C6.41,555.31,7.48,550.51,0,548.36c.3,12-.14,22.83,0,34.63,7.87.84,10.44-.15,16,2.56,11.38,5.59,13.88,44.51-16,55-.28,12.21,1.1,19.44.33,31.49C15.08,661.46,15.78,648.9,28.6,644c22.66-8.72,22.63,18.24,19.59,54.34-3.27,38.85,19.57,51.36,40.46,27.75,20.06-22.67-7.84-48.95-8.78-64.92S68.74,630.65,98,600.73c29.66-30.29,78-53,78-53Z"/><path d="M616.09,1146.4l28.24-9.33-1.78-7.75-18.78,4.31-13.14-36.57-11.45,2.63,13.13,36.55Z"/><path d="M591.18,1111.49s-9.51,3.8-15.2,8.25c-5,3.94-9.92,10-10.05,17.16-.11,5.89,6.55,16,11.5,19.59,4.62,3.39,13.69,2.18,20.79-2.49,4.36-2.87,12.58-9.73,12.58-9.73l-8.47-10.86s-10.09,7.52-13.75,8.73c-4.76,1.58-8.58-2.94-7.87-7s7.23-6.82,9.3-8.22,6.38-3.56,6.38-3.56Z"/><path d="M698.89,1084.74s-10.24.24-17.12,2.42c-6.1,1.93-12.8,5.94-15.41,12.57-2.16,5.48.57,17.24,3.93,22.37,3.14,4.79,12.07,6.83,20.35,4.93,5.09-1.16,15.18-4.72,15.18-4.72l-4.14-13.14s-13.15,4.19-17,4.05c-5-.19-7.28-7.33-5.21-10.84s10.27-4.06,12.7-4.65,7.44,0,7.44,0Z"/><path d="M650.82,1131.26l-4.21-41.33,12.18-.43,2,42.66Z"/><path d="M723,1131.24l-20.71-55.56,11.82-4.27c1.52,4.21,4.16,17.2,4.16,17.2l9.41-20.92,8.56-.67-10,31.64,25.82,5.89-4.16,9.67-22.62-4,9,15.37Z"/><polygon points="565.28 1205.34 558.72 1205.9 549.8 1171.11 560.83 1169.63 565.28 1205.34"/><polygon points="578.6 1200.8 573.79 1197.99 584.58 1169.63 592.91 1173.99 578.6 1200.8"/><polygon points="552.75 1213.77 555.23 1208.79 530.66 1190.98 526.08 1199.19 552.75 1213.77"/><text class="cls-14" transform="translate(676.56 1181.83) rotate(-14.84)">For at skyde <tspan x="0" y="35.8">efter Torsten</tspan></text><text class="cls-14" transform="translate(453.95 1682.48) rotate(9.39)">Telefonen for <tspan x="0" y="35.8">at sigte!</tspan></text><polygon points="463.8 1570.29 367.44 1642.4 371.63 1602.68 345.82 1602.68 345.82 1677.07 411.23 1677.07 411.23 1655.74 374.11 1658.4 476.63 1587.81 463.8 1570.29"/><polygon points="764.91 1403.88 883.77 1384.95 852.35 1360.29 870.32 1341.77 923.7 1393.58 878.15 1440.52 862.84 1425.66 890.61 1400.88 768.54 1425.29 764.91 1403.88"/><path d="M722.13,1671a18.4,18.4,0,0,1-2.85,3.11c-.3.26,4,1.66,4,1.66s-7,3.85-11.78,1.1c-8.89-5.14,11.9-37,20.89-16l9.74.5s1.07-5.17-.54-8.94c-4.31-10.05-15.74-12.06-25.83-9.73-11.18,2.58-20,16.86-19.23,28.33.42,6.48,1,13.69,15.25,17.88s20.11-6,20.11-6-3,6.75-2.17,7.1c1.37.6,5,1.63,5.28,1.15.38-.77,9-15.41,9.31-16.29l-5.6-1S722.13,1671,722.13,1671Z"/><path d="M668,1675.39l-.78,4.43,14.75,3.24-1.44,8.17-24.79-3.42c.68-2.75,1.32-5.35,2-8,.56-2.27,1.09-4.55,1.72-6.8a1.26,1.26,0,0,0-.75-1.71,40,40,0,0,1-3.82-2.27,1.46,1.46,0,0,0-2.26.24c-3,3.09-6.12,6.09-9.19,9.12-.28.28-.58.54-1,.88l-8-9.12,8.51-7.6q10.43-9.29,20.85-18.59a1.89,1.89,0,0,1,1.93-.5c8.74,2.11,17.49,4.17,26.24,6.25l2.07.52-4.26,10.6-17.67-5.15-2.23,9.91,8.12.48-.49,9.39ZM658.68,1662l2.48,1.57,1.24-4.72-.22-.14Z"/><path d="M530.94,1652.53c5.47-.76,12.44-2.63,11.86-6.92-.45-3.33-8.06-3-12.67-2.3Zm-14.46-38.83c2.37-.64,4.73-1.34,7.11-1.89,5.22-1.22,10.48-2.29,15.87-1.8a28.21,28.21,0,0,1,6.7,1.42c8.06,2.81,10.26,15.66,2.17,21.22-1.91,1.31-4,2.33-6.18,3.55,0,0,7.59,1.06,9.25,4.59,8.76,18.68-20.06,22.57-31.93,19Zm13,16.5a67.37,67.37,0,0,0,7.33-2.06c2.43-1,3-3.26,1.56-5.46a5.68,5.68,0,0,0-2.39-2.05,10.6,10.6,0,0,0-6.53-.3Z"/><path d="M597.62,1635l-16.1-7.49-3.31,7.21,9.65,4.53-2.47,5.17-8.44-3.86-4.5,9.61,18.08,8.48-3.38,7.22-28.86-8.6,16.2-40.89,24,6.3Z"/><path d="M634.36,1623l11.58,5.24c-.77,1.41-9.75,22.39-18.5,37.74-2,3.56-4.12,7.07-6.09,10.66-.52.95-9.59-2.12-9.77-2.88-2-8.58-9.33-57.26-9.33-57.26,1.6.5,14.2,1.64,14.32,2.53,1.35,10.53,2.1,24.05,3.48,34.58a4.59,4.59,0,0,0,.51,1.78A251.42,251.42,0,0,0,634.36,1623Z"/></g></svg>