<svg xmlns="http://www.w3.org/2000/svg" viewBox="0 0 1080 1920"><defs><style>.cls-1{fill:#f9f6de;}.cls-2{fill:#4b846a;}.cls-3{fill:#231f20;}.cls-4{fill:#003bff;}.cls-5{fill:#f9f9f9;}.cls-6{font-size:50.44px;fill:#f5846f;font-family:Courier, Courier;}</style></defs><title>MainBG</title><g id="Hori"><rect class="cls-1" x="-5.58" width="1080" height="1920"/></g><g id="Layer_4" data-name="Layer 4"><path class="cls-2" d="M409.27,292.71s-18.67-1-28.6-3.08l9.79-85.7c4.36.43,8.5.7,12.6,1.25,11.74,1.58,23.62,2.57,35.15,5.12,12.08,2.67,23.36,7.62,32.21,17,14.2,15,11.93,46.51-9.57,57.53-10.54,5.41-21.8,7-33.33,7.68C421.61,292.83,415.68,292.65,409.27,292.71Zm1.42-25.76c4.53.44,8.44,1.13,12.35,1.13,5.34,0,10.68-.58,15.35-3.62,7.22-4.69,7.82-14.46.92-19.34-8.19-5.8-17.85-5.32-27.44-6.24Z"/><path class="cls-2" d="M358.35,308.18c-21.4,3.68-7.14.62-28.48,4.29-.48-7.31-.94-14.22-1.39-21.13-.39-6,.6-18,.38-24.05,0,.26-19.75-3.88-19.75-3.88-5,10-11.78,25.74-17,35.62-.48.91-1,1.79-1.65,2.92L263.6,285.74c5.09-8.6,10-17,15-25.36q18.43-31,36.85-62.09l28.12-3.4ZM317,246.59l7.35,1.93-.62-12.59-.66-.17Z"/><path class="cls-2" d="M142.16,280.35l29.8,3.16s29-64.2,30.39-65.62c.65,4.57,9.93,87.34,9.93,87.34,10.5-1.26,21.05-2.08,32.26-3.14L227,180.77c-3.23.38-41.85,2.6-41.85,2.6s-26.41,41.35-27.45,43.68c-2.26-7.87-4.23-14.66-6.17-21.46-2.46-8.62-5-17.23-7.29-25.89l-49.08-2.16L59.2,298.06l37.17,6.14,26.5-83Z"/><path class="cls-2" d="M521.32,328l-3.4-185.25,39.27-.33c.12,14-5.56,55-5.56,55l49.43-51.91L627,152.43l-62.24,82.9,70,44.15-22.3,24.18L550,268.3l10.64,54.65Z"/><path class="cls-2" d="M741,287.6c-19.25,10.05-6.6,2.78-25.79,12.8-2.7-6.81-5.25-13.25-7.79-19.69-2.22-5.62-4.52-11.21-6.57-16.89-.79-2.18-2-2.74-4.14-2.47a103.25,103.25,0,0,1-11.45.93c-2.84,0-3.95,1-4.4,3.89-1.72,11-3.76,22-5.69,33-.18,1-.42,2-.68,3.29l-30.56-7.19c2.21-9.74,4.36-19.24,6.53-28.74q8-35.19,16.06-70.39l25.72-11.85Zm-58.24-46,7.58-.41-4.45-11.8-.68,0Z"/><path class="cls-2" d="M835.25,267.12l-17.63-2.58s-21.09-40.14-22.12-41.36c-.83,3.55-13.75,67.69-13.75,67.69s-17.8-.14-26.54-1.77l23.3-98c2.52.53,14,3.05,23.65,5l27.19,40.57s23.92-37.44,25.77-37.1c9,1.69,9,1.6,18.66,3.34l17.17,98-21.42,1.59L859,230.42Z"/><path class="cls-2" d="M942.35,274.77l-3,45.5-29.2-5.07,10.6-128.57c4.37.29,8.52.43,12.63.86,11.78,1.21,25.16,2.22,36.76,4.4-6.59,5.73.69,14.77,7.43,12.13-5.38,8.48,5.85,19.9,15.13,13.37-.65,5.08,5.32,12.42,15.1,7.22,5.15,10.4,7,29-14.16,40.66C983.28,271,972.08,273,960.58,274,954.7,274.5,948.76,274.51,942.35,274.77ZM943,249c4.54.3,8.47.86,12.38.74,5.34-.17,10.66-.92,15.23-4.1,7.07-4.91,7.36-14.7.31-19.36-8.37-5.54-18-4.76-27.62-5.38Z"/></g><g id="Vert"><polygon class="cls-3" points="72.14 1829.77 87.5 1829.77 87.5 1715.61 72.14 1715.61 72.14 1829.77 72.14 1829.77"/><polygon class="cls-3" points="93.55 1773.09 97.61 1773.09 97.61 1715.61 93.55 1715.61 93.55 1773.09 93.55 1773.09"/><polygon class="cls-3" points="102.06 1773.09 106.13 1773.09 106.13 1715.61 102.06 1715.61 102.06 1773.09 102.06 1773.09"/><path class="cls-3" d="M286.2,1715.62l-21.83,103.17H238.59V1715.68H230v0h-28.8v11h12.49v92.18H204.6V1773H193v-7.06H179v-35H193v-15.36H143.66v0H129v114.09h19.87v-48.46H163.6v48.46H179v-48.46h13.69v48.46H279v-11h-5l22.06-103.17Zm-137.29,50.33v-35H163.6v35Zm68.89,52.84v-92.18h5.43v92.18Z"/><polygon class="cls-3" points="346.41 1829.78 323.1 1715.63 305.57 1715.63 305.58 1715.68 299.62 1715.68 299.62 1829.77 314.98 1829.77 314.98 1761.19 329.14 1829.78 346.41 1829.78 346.41 1829.78"/><path class="cls-3" d="M174.06,1860.14a3.28,3.28,0,0,1-3.56,3.54h-2.21v-15.11h2.24a3.29,3.29,0,0,1,3.53,3.54v8Zm4.69-.92V1853c0-4.79-2.56-8.2-8.25-8.2h-6.9v22.65h6.93c5.27,0,8.22-3.45,8.22-8.23Z"/><polygon class="cls-3" points="192.99 1867.46 182.17 1867.46 182.17 1844.8 192.7 1844.8 192.7 1848.58 186.86 1848.58 186.86 1853.79 192.53 1853.79 192.53 1857.56 186.86 1857.56 186.86 1863.68 192.99 1863.68 192.99 1867.46 192.99 1867.46"/><polygon class="cls-3" points="199.75 1867.46 199.75 1848.58 195.06 1848.58 195.06 1844.8 209.1 1844.8 209.06 1848.58 204.44 1848.58 204.44 1867.46 199.75 1867.46 199.75 1867.46"/><path class="cls-3" d="M231,1860.14a3.28,3.28,0,0,1-3.56,3.54h-2.21v-15.11h2.24a3.29,3.29,0,0,1,3.53,3.54v8Zm4.69-.92V1853c0-4.79-2.56-8.2-8.25-8.2h-6.9v22.65h6.93c5.27,0,8.22-3.45,8.22-8.23Z"/><path class="cls-3" d="M243.7,1858.68l1.54-9.22,1.74,9.22Zm4,3.74,1,5h4.82l-4.89-22.66h-6.43l-4.79,22.66h4.92l.82-5Z"/><polygon class="cls-3" points="255.9 1867.46 255.9 1844.8 261.56 1844.8 266.88 1859.39 266.88 1844.8 271.13 1844.8 271.13 1867.46 265.45 1867.46 260.15 1852.84 260.15 1867.46 255.9 1867.46 255.9 1867.46"/><path class="cls-3" d="M281.18,1867.67c-4.56,0-6.92-2-6.92-6.49v-1.24H279v1.11c0,1.8.39,3,2.2,3,1.08,0,2.23-.49,2.23-2.39,0-4.94-9.08-3.14-9.08-10.44a6.43,6.43,0,0,1,6.85-6.62c4.56,0,6.92,2.26,6.92,6.55v1.54h-4.69v-1.47c0-2.13-.92-3-2.2-3-1.51,0-2.2.85-2.2,2.45,0,4.55,9.08,2.78,9.08,10.31,0,5.14-3.61,6.68-6.88,6.68Z"/><polygon class="cls-3" points="295.86 1867.46 291.17 1867.46 291.17 1844.8 295.86 1844.8 295.86 1854.97 300.58 1844.8 305.97 1844.8 300.39 1855.66 306.36 1867.46 301.01 1867.46 295.86 1856.8 295.86 1867.46 295.86 1867.46"/><polygon class="cls-3" points="319.32 1867.46 308.5 1867.46 308.5 1844.8 319.02 1844.8 319.02 1848.58 313.19 1848.58 313.19 1853.79 318.86 1853.79 318.86 1857.56 313.19 1857.56 313.19 1863.68 319.32 1863.68 319.32 1867.46 319.32 1867.46"/><polygon class="cls-3" points="336.15 1848.58 336.15 1853.79 341.96 1853.79 341.96 1857.56 336.15 1857.56 336.15 1867.46 331.46 1867.46 331.46 1844.8 343.44 1844.8 343.44 1848.58 336.15 1848.58 336.15 1848.58"/><polygon class="cls-3" points="350.59 1844.8 350.59 1867.46 345.9 1867.46 345.9 1844.8 350.59 1844.8 350.59 1844.8"/><polygon class="cls-3" points="354.04 1867.46 354.04 1844.8 358.73 1844.8 358.73 1863.68 365.49 1863.68 365.49 1867.46 354.04 1867.46 354.04 1867.46"/><polygon class="cls-3" points="384.41 1867.46 384.41 1849.65 380.5 1867.46 375.77 1867.46 372.16 1849.46 372.16 1867.46 367.96 1867.46 367.96 1844.8 375.41 1844.8 378.3 1860.94 381.19 1844.8 388.61 1844.8 388.61 1867.46 384.41 1867.46 384.41 1867.46"/><polygon class="cls-3" points="396.73 1844.8 396.73 1867.46 392.04 1867.46 392.04 1844.8 396.73 1844.8 396.73 1844.8"/><polygon class="cls-3" points="400.18 1867.46 400.18 1844.8 405.83 1844.8 411.16 1859.39 411.16 1844.8 415.4 1844.8 415.4 1867.46 409.72 1867.46 404.42 1852.84 404.42 1867.46 400.18 1867.46 400.18 1867.46"/><path class="cls-3" d="M425.46,1867.67c-4.56,0-6.92-2-6.92-6.49v-1.24h4.69v1.11c0,1.8.39,3,2.2,3,1.08,0,2.23-.49,2.23-2.39,0-4.94-9.08-3.14-9.08-10.44a6.43,6.43,0,0,1,6.85-6.62c4.56,0,6.92,2.26,6.92,6.55v1.54h-4.69v-1.47c0-2.13-.92-3-2.2-3-1.51,0-2.2.85-2.2,2.45,0,4.55,9.08,2.78,9.08,10.31,0,5.14-3.61,6.68-6.89,6.68Z"/><polygon class="cls-3" points="438.85 1867.46 438.85 1848.58 434.16 1848.58 434.16 1844.8 448.2 1844.8 448.17 1848.58 443.54 1848.58 443.54 1867.46 438.85 1867.46 438.85 1867.46"/><polygon class="cls-3" points="455.33 1844.8 455.33 1867.46 450.64 1867.46 450.64 1844.8 455.33 1844.8 455.33 1844.8"/><polygon class="cls-3" points="462.51 1867.46 462.51 1848.58 457.82 1848.58 457.82 1844.8 471.86 1844.8 471.82 1848.58 467.2 1848.58 467.2 1867.46 462.51 1867.46 462.51 1867.46"/><path class="cls-3" d="M482,1867.67c-4.56,0-7.74-2.36-7.74-7.86v-15h4.86v15.6c0,2.75.92,3.54,2.85,3.54s2.88-.79,2.88-3.54v-15.6h4.86v15c0,5.54-3.18,7.9-7.71,7.9Z"/><polygon class="cls-3" points="496.93 1867.46 496.93 1848.58 492.24 1848.58 492.24 1844.8 506.28 1844.8 506.24 1848.58 501.62 1848.58 501.62 1867.46 496.93 1867.46 496.93 1867.46"/><path d="M628,1850.05c.23-1.16.43-2.32.68-3.47A17.73,17.73,0,0,1,644.83,1833c10.72-.5,16.8,6.54,18.49,12.59.07.27.11.55.21,1.08-3,0-5.83,0-8.69,0-.28,0-.64-.38-.83-.68-3-4.82-7-6.41-11.43-4.5-4.24,1.84-6.55,7.21-5.17,12.12,1.05,3.74,3.31,6.38,7.27,7s7-1.1,9.12-4.57c.25-.42.79-.95,1.2-1,2.77-.09,5.54,0,8.55,0-1.86,6.55-5.79,10.84-12.08,12.72-11.2,3.33-21.93-3.93-23.2-15.55a3.31,3.31,0,0,0-.28-.75Z"/><path d="M921.81,1845.1c-3.17,0-6.17,0-9.17,0-.39,0-.87-.46-1.14-.83a8.23,8.23,0,0,0-8.37-3.38,8.73,8.73,0,0,0-7.1,5.68c-2.32,5.81.47,12.29,6.07,13.84,3.38.94,6.56.42,9.08-2.27a19.86,19.86,0,0,0,1.77-2.76H902.61v-6.87h20c1.15,7.14-2.44,16.89-13.68,19.56A18.11,18.11,0,0,1,887,1855a17.44,17.44,0,0,1,13.07-21.53C909.35,1831.19,919.54,1836.51,921.81,1845.1Z"/><path d="M804.3,1867.8c-2.35,0-4.57.07-6.77,0a2.33,2.33,0,0,1-1.5-1c-3.69-5.73-7.33-11.49-11-17.24-.29-.45-.6-.89-1.15-1.71v19.91h-8.34v-34c2.41,0,4.82-.05,7.23.05.39,0,.81.71,1.1,1.16q5.51,8.71,11,17.44c.32.5.64,1,1.17,1.81v-20.38h8.25Z"/><path d="M960.11,1833.62c2.35,0,4.62-.06,6.88,0,.46,0,1,.59,1.32,1.05,3.73,5.84,7.41,11.7,11.11,17.56.26.42.55.82,1.05,1.57v-20.11h8.37v34c-2.42,0-4.84.05-7.25-.05-.39,0-.83-.68-1.12-1.13q-5.5-8.61-11-17.25c-.3-.47-.63-.92-1.15-1.69v20h-8.26Z"/><path d="M824,1867.72h-8.7v-34h8.59v12.48H835v-12.5h8.7v34h-8.59v-13.45H824Z"/><path d="M849.87,1867.8c1.39-3.5,2.66-6.71,3.93-9.91,3-7.59,6-15.18,9-22.8a1.93,1.93,0,0,1,2.23-1.49c1.64.1,3.3,0,4.94.07a1.84,1.84,0,0,1,1.37.85q6.36,16.41,12.62,32.87s0,.11,0,.29h-9.44c-.36-1.09-.83-2.29-1.15-3.52a1.42,1.42,0,0,0-1.69-1.2c-3.07.06-6.14.07-9.2,0a1.66,1.66,0,0,0-1.91,1.39c-1.08,3.48-1.13,3.47-4.74,3.47Zm20.68-12-3.56-11-.38.06-3.37,10.94Z"/><path d="M722,1857.16v10.54h-8.63v-34.29c5.81.22,11.57.06,17.22.76,6,.74,9.53,7.12,8.21,13.54s-5.3,9.29-12.64,9.44C724.83,1857.19,723.54,1857.16,722,1857.16Zm.16-15.87v8.19a49.1,49.1,0,0,0,5.52-.4c2-.36,2.9-1.75,2.87-3.82a3.36,3.36,0,0,0-2.92-3.62A53.85,53.85,0,0,0,722.14,1841.29Z"/><path d="M746.58,1833.67h19.19v7.64h-10.4v5.25h10.1v7.66H755.38v5.87h10.39v7.6h-19.2Z"/><path d="M931.18,1833.68h19.13v7.66H939.95v5.2H950v7.73H940v5.8h10.39v7.6H931.18Z"/><path d="M766.51,1803.48v18.88h-4.36V1810l-.32-.06-3.64,12.44c-.36,0-.64,0-.91.09-1.81.31-2.68-.34-3.12-2.24A80.05,80.05,0,0,0,751,1810v12.35h-4.41v-18.87c2,0,3.89-.07,5.8.06.38,0,.9.75,1,1.24,1,3.36,2,6.74,3.05,10.41a10.28,10.28,0,0,0,.52-1.15c.9-3.11,1.82-6.2,2.64-9.33.25-.94.64-1.31,1.62-1.27C762.94,1803.53,764.64,1803.48,766.51,1803.48Z"/><path d="M853.45,1822.38v-18.62c3.22-.82,3.93-.55,5.59,2.09,1.78,2.83,3.57,5.66,5.57,8.82v-11.05h4.63v18.85a32.28,32.28,0,0,1-3.63,0,2.13,2.13,0,0,1-1.2-1c-2.07-3.18-4.09-6.38-6.39-10v11Z"/><path d="M792.93,1822.47v-19.19c3.52.24,7,.13,10.36.79,4,.78,6.36,5,6,9.51-.42,5.95-3.58,8.88-9.6,8.9Zm5-4.23c2.3,0,4.53.21,5.72-2a6.22,6.22,0,0,0-.33-6.77c-1.31-1.9-3.35-1.71-5.39-1.57Z"/><path d="M789.13,1822.47a30.5,30.5,0,0,0-3.3,0c-1.47.17-2.34-.23-2.63-1.81-.07-.38-.81-.83-1.3-.9-.94-.14-1.93,0-2.89-.06-1.67-.16-3,0-3.28,2.08,0,.25-.63.61-1,.63-1.41.07-2.83,0-4.43,0,.25-.76.43-1.38.67-2,2.06-5.22,4.2-10.4,6.15-15.66.6-1.62,1.69-1.33,2.83-1.35s2-.16,2.54,1.28c2,5.43,4.1,10.8,6.17,16.2C788.83,1821.37,788.93,1821.8,789.13,1822.47ZM779.79,1810h-.33l-1.75,5.76h3.9Z"/><path d="M814.44,1822.34v-18.72h10.69v4.09H819.5v3h5.44V1815h-5.46v3.21h5.62v4.14Z"/><path d="M847.34,1822.4h-4.65v-18.78h4.65Z"/><circle class="cls-4" cx="808.22" cy="1655.12" r="135.69"/><circle class="cls-5" cx="843.32" cy="1581.24" r="17.52"/><circle class="cls-4" cx="687.93" cy="1850.41" r="18.01"/><text class="cls-6" transform="translate(231.69 390.72) scale(0.94 1)">Prototype Oktober 2017</text></g></svg>