<svg xmlns="http://www.w3.org/2000/svg" viewBox="0 0 1080 1920"><defs><style>.cls-1{fill:#f9f6de;}.cls-2{fill:#4b846a;}.cls-3{fill:#8bc751;}.cls-4{fill:#231f20;}.cls-5{fill:#003bff;}.cls-6{fill:#f9f9f9;}.cls-7{font-size:50.44px;fill:#f5846f;font-family:Courier, Courier;}.cls-8{fill:#f15a22;}.cls-9{fill:#fff;}</style></defs><title>ExampleMain</title><g id="Hori"><rect class="cls-1" width="1080" height="1920"/></g><g id="Layer_4" data-name="Layer 4"><path class="cls-2" d="M414.84,292.71s-18.67-1-28.6-3.08l9.79-85.7c4.36.43,8.5.7,12.6,1.25,11.74,1.58,23.62,2.57,35.15,5.12,12.08,2.67,23.36,7.62,32.21,17,14.2,15,11.93,46.51-9.57,57.53-10.54,5.41-21.8,7-33.33,7.68C427.19,292.83,421.26,292.65,414.84,292.71Zm1.42-25.76c4.53.44,8.44,1.13,12.35,1.13,5.34,0,10.68-.58,15.35-3.62,7.22-4.69,7.82-14.46.92-19.34-8.19-5.8-17.85-5.32-27.44-6.24Z"/><path class="cls-2" d="M363.93,308.18c-21.4,3.68-7.14.62-28.48,4.29-.48-7.31-.94-14.22-1.39-21.13-.39-6,.6-18,.38-24.05,0,.26-19.75-3.88-19.75-3.88-5,10-11.78,25.74-17,35.62-.48.91-1,1.79-1.65,2.92l-26.89-16.21c5.09-8.6,10-17,15-25.36q18.43-31,36.85-62.09l28.12-3.4Zm-41.37-61.59,7.35,1.93-.62-12.59-.66-.17Z"/><path class="cls-2" d="M147.73,280.35l29.8,3.16s29-64.2,30.39-65.62c.65,4.57,9.93,87.34,9.93,87.34,10.5-1.26,21.05-2.08,32.26-3.14L232.53,180.77c-3.23.38-41.85,2.6-41.85,2.6s-26.41,41.35-27.45,43.68c-2.26-7.87-4.23-14.66-6.17-21.46-2.46-8.62-5-17.23-7.29-25.89l-49.08-2.16L64.78,298.06,102,304.2l26.5-83Z"/><path class="cls-2" d="M526.9,328l-3.4-185.25,39.27-.33c.12,14-5.56,55-5.56,55l49.43-51.91,25.93,6.92-62.24,82.9,70,44.15L618,303.66,555.53,268.3l10.64,54.65Z"/><path class="cls-2" d="M746.56,287.6c-19.25,10.05-6.6,2.78-25.79,12.8-2.7-6.81-5.25-13.25-7.79-19.69-2.22-5.62-4.52-11.21-6.57-16.89-.79-2.18-2-2.74-4.14-2.47a103.25,103.25,0,0,1-11.45.93c-2.84,0-3.95,1-4.4,3.89-1.72,11-3.76,22-5.69,33-.18,1-.42,2-.68,3.29l-30.56-7.19c2.21-9.74,4.36-19.24,6.53-28.74q8-35.19,16.06-70.39l25.72-11.85Zm-58.24-46,7.58-.41-4.45-11.8-.68,0Z"/><path class="cls-2" d="M840.83,267.12l-17.63-2.58s-21.09-40.14-22.12-41.36c-.83,3.55-13.75,67.69-13.75,67.69s-17.8-.14-26.54-1.77l23.3-98c2.52.53,14,3.05,23.65,5l27.19,40.57s23.92-37.44,25.77-37.1c9,1.69,9,1.6,18.66,3.34l17.17,98-21.42,1.59-10.53-72.09Z"/><path class="cls-2" d="M947.93,274.77l-3,45.5-29.2-5.07,10.6-128.57c4.37.29,8.52.43,12.63.86,11.78,1.21,25.16,2.22,36.76,4.4-6.59,5.73.69,14.77,7.43,12.13-5.38,8.48,5.85,19.9,15.13,13.37-.65,5.08,5.32,12.42,15.1,7.22,5.15,10.4,7,29-14.16,40.66C988.86,271,977.66,273,966.16,274,960.27,274.5,954.34,274.51,947.93,274.77Zm.61-25.79c4.54.3,8.47.86,12.38.74,5.34-.17,10.66-.92,15.23-4.1,7.07-4.91,7.36-14.7.31-19.36-8.37-5.54-18-4.76-27.62-5.38Z"/><path class="cls-3" d="M211.41,832.16,228.15,679.6h33.36c-1.38,11.51-4.39,47.56-4.39,47.56l49.39-35.53,12.18,21.32-55.53,40.17,58.34,48.82-20.87,17.51L250.08,791.1l-2.76,41.06Z"/><path class="cls-3" d="M822,690.15l26.91-4c.25,3.43.55,6.72.73,10q3.2,56.66,6.36,113.32c.49,8.75.8,17.51,1.43,26.24.17,2.3-.67,3-2.64,3.45-4.77,1.15-9.53,2.37-14.21,3.81a3.62,3.62,0,0,1-4.07-1.08q-20.46-19.58-41-39.1c-4.86-4.64-9.74-9.26-15.19-14.43l6.77,65.73L763.86,858l-10.7-108.2c3.45-1,6.91-1.95,10.39-2.87,5.48-1.46,11-2.77,16.45-4.38a3.37,3.37,0,0,1,4.16,1.28q22,26,44.12,52a9.82,9.82,0,0,0,3,2.61Z"/><path class="cls-3" d="M572.9,668.47c-17.65,3.48-5.9.66-23.49,4.13-.55-6-1.07-11.75-1.58-17.47-.44-5-1-10-1.26-15-.12-1.92-.91-2.64-2.71-2.93a85.52,85.52,0,0,1-9.31-1.94c-2.26-.64-3.36-.15-4.41,2.06-3.95,8.35-8.14,16.59-12.25,24.87-.38.76-.8,1.51-1.31,2.45L494,651.81c4-7.22,8-14.27,11.92-21.3q14.64-26.08,29.25-52.16L558.37,575ZM537.4,618.3l6.12,1.45-.77-10.42-.55-.13Z"/><path class="cls-3" d="M407.74,797.8c-17.65,3.48-5.9.66-23.49,4.13-.55-6-1.07-11.75-1.58-17.47-.44-5-1-10-1.26-15-.12-1.92-.91-2.64-2.71-2.93a85.52,85.52,0,0,1-9.31-1.94c-2.26-.64-3.36-.15-4.41,2.06-3.95,8.35-8.14,16.59-12.25,24.87-.38.76-.8,1.51-1.31,2.45l-22.6-12.87c4-7.22,8-14.27,11.92-21.3q14.64-26.08,29.25-52.16l23.21-3.39Zm-35.5-50.16,6.12,1.45-.77-10.42-.55-.13Z"/><path class="cls-3" d="M494.86,816.67l-21.16-5.9s-8.91-44.42-9.63-45.53c-1.06,2.83-2.15,5.64-3.17,8.48l-15.43,33.94c-6.53-2.28-13.16-4.29-20.17-6.54l29.41-78.07,5.57,1.93c7.73,2.69,15.44,5.42,23.2,8a3.53,3.53,0,0,1,2.66,3.23c1.44,8.63,3,17.24,4.55,25.85.15.83.34,1.65.68,3.29,2.55-4.71,4.76-8.78,7-12.85,2.78-5.16,5.61-10.31,8.3-15.52.72-1.39,1.45-1.78,2.93-1.3,7.23,2.33,14.48,4.59,22.21,7l12.55,81.85-24.62-1.3-5.35-43.17Z"/><path class="cls-3" d="M674.14,627.56l16.58,17.51-16.44,15.3L650.16,640.2l7.9,36.67-23,8.8-23.46-96c4.76-2.22,9.46-4.58,14.29-6.64,10.55-4.51,21.24-8.73,32.79-9.71a60.4,60.4,0,0,1,14.65.5c18,2.93,27.47,29.19,12.47,43.92C682.29,621.26,678.21,624.19,674.14,627.56Zm-28.93-7.91c5.32-2.51,10.29-4.33,14.69-7.08,4.76-3,5.13-8,1.25-12.09a12.15,12.15,0,0,0-5.8-3.43c-4.67-1-9.29-.12-13.87,1.8Z"/><path class="cls-3" d="M589.52,789V826.8l-24.41-2.6,1.76-106.85c3.63,0,7.06-.11,10.49,0,9.81.36,19.68.22,29.39,1.39,10.17,1.23,19.87,4.4,27.92,11.41,12.91,11.24,13.58,37.38-3.26,48.2-8.26,5.31-17.41,7.56-26.86,9C599.71,788.13,594.8,788.46,589.52,789Zm-.9-21.35c3.77,0,7.05.25,10.28-.06,4.4-.43,8.76-1.34,12.37-4.22,5.58-4.45,5.28-12.55-.8-16-7.22-4.12-15.14-3-23.12-2.94Z"/><path class="cls-3" d="M364.3,577.31l-18.39,12.26a36.67,36.67,0,0,0-2.37-3.71,60.91,60.91,0,0,0-6.44-7.33,7.59,7.59,0,0,0-9.85-.42c-3.23,2.39-4.65,6-3,9.68a36.1,36.1,0,0,0,5.92,9.1,100.68,100.68,0,0,0,10.22,9.34c6.39,5.36,12.17,11.22,13.52,19.81a34.45,34.45,0,0,1-.25,12.54,37.86,37.86,0,0,1-14.15,22.53c-10,7.6-21,6.39-31.82,2.06a36.25,36.25,0,0,1-10.23-6.74c-7.95-7.08-13.38-16-18.21-25.86l20.8-10.32a104.23,104.23,0,0,0,5.31,9.31,71.2,71.2,0,0,0,8.4,10.2c3.42,3.3,7.63,4.69,12.46,2.58,5.56-2.43,7.37-6.57,4.92-12.16-2.65-6-7.16-10.67-11.81-15.17-5.44-5.27-10.2-11-13.45-17.92-5.77-12.21-4.42-24,2.71-35.14,7.49-11.72,27.7-17.69,42.09-3.49A76.31,76.31,0,0,1,364.3,577.31Z"/><path class="cls-3" d="M732.43,752.87l-36.73-9.8-4.3,16.44,22,6-3.28,11.81-19.22-5L685,794.24l41.28,11.15-4.44,16.47-64-7.38,18.94-92.23,53,4.33Z"/><path class="cls-3" d="M712.84,590.82l4.66-23,87.29,12.72L800.24,601H781l-13.08,57.07-20.21-2.31,8.64-58.82Z"/><path class="cls-3" d="M472.6,609.46,448,615.16l4.17,48.1L429,666.6,427,613.26H399.56c0-5.82-.06-11.28.1-16.74,0-.57,1.31-1.49,2.1-1.6,16.2-2.23,32.42-4.36,48.63-6.53,3.62-.48,7.23-1.1,10.87-1.46a2.93,2.93,0,0,1,2.43,1.09C466.69,595,469.53,602,472.6,609.46Z"/><path d="M639.35,1344.58a52,52,0,0,1-6.13-.74c-6.45-1.54-10.31-5.82-11.85-12.13-2.73-11.16,3.69-24.12,14.25-28.61,9.53-4.05,17.83-2.32,23.82,6.83a24.7,24.7,0,0,1,4,17.23c-.78,6-4.22,10.17-9.27,13.2A30.39,30.39,0,0,1,639.35,1344.58Zm9.81-20.53a7.15,7.15,0,0,0-7.73-7.42,12.18,12.18,0,0,0-4.31,1.4c-3.42,1.82-4.63,4.82-3.84,8.9.6,3.09,2.18,4.35,6.28,5A8.17,8.17,0,0,0,649.16,1324Z"/><path d="M715.72,1343.79c-4.44.4-8.68.81-12.94,1.11a2.2,2.2,0,0,1-1.5-.83c-4-4.76-7.9-9.55-11.85-14.34a3.56,3.56,0,0,0-1.19-1c.23,1.39.45,2.78.7,4.17.94,5.18,1.86,10.36,2.87,15.52.22,1.15,0,1.59-1.18,1.81-3.18.6-6.33,1.34-9.69,2.07l-6.34-38.45,2.7-.52c3.75-.72,7.51-1.41,11.26-2.17a1.65,1.65,0,0,1,1.83.68c2.6,3.15,5.25,6.27,7.88,9.39.25.3.52.59,1,1.17-.07-2.5-.12-4.66-.19-6.82-.08-2.76-.14-5.52-.27-8.28a1.12,1.12,0,0,1,.88-1.15c3.47-.75,6.93-1.53,10.63-2.35Z"/><path d="M336.77,1337c-4.39-.74-8.6-1.41-12.8-2.19a2.2,2.2,0,0,1-1.24-1.18c-2.64-5.61-5.23-11.24-7.84-16.86a3.56,3.56,0,0,0-.89-1.27c-.13,1.4-.27,2.81-.37,4.21-.4,5.25-.82,10.49-1.14,15.74-.07,1.17-.4,1.54-1.6,1.46-3.23-.22-6.46-.3-9.9-.45l3.57-38.81,2.75.18c3.81.25,7.63.53,11.44.74a1.65,1.65,0,0,1,1.6,1.12c1.72,3.71,3.5,7.39,5.25,11.08.17.36.36.7.71,1.4.57-2.44,1.06-4.54,1.54-6.65.62-2.69,1.26-5.38,1.82-8.08a1.12,1.12,0,0,1,1.15-.89c3.54.15,7.09.27,10.88.41Z"/><path d="M457.22,1326.73l7.75,8.18-7.68,7.15L446,1332.63l3.69,17.13L439,1353.88,428,1309c2.22-1,4.42-2.14,6.68-3.1,4.93-2.11,9.92-4.08,15.32-4.54a28.21,28.21,0,0,1,6.84.23c8.43,1.37,12.83,13.64,5.83,20.52C461,1323.79,459.12,1325.16,457.22,1326.73ZM443.7,1323a67.37,67.37,0,0,0,6.86-3.31c2.22-1.39,2.4-3.73.59-5.65a5.68,5.68,0,0,0-2.71-1.6,10.6,10.6,0,0,0-6.48.84Z"/><path d="M377.4,1305.85l-7.07,7.53a17.13,17.13,0,0,0-1.47-1.44,28.45,28.45,0,0,0-3.7-2.65,3.81,3.81,0,0,0-4.84,5.57,16.86,16.86,0,0,0,3.66,3.51,47,47,0,0,0,5.64,3.16c3.47,1.76,6.72,3.82,8.25,7.58a16.09,16.09,0,0,1,1.21,5.73,17.69,17.69,0,0,1-4.05,11.75c-3.76,4.52-8.88,5.13-14.26,4.31a16.94,16.94,0,0,1-5.37-2c-4.37-2.38-7.79-5.88-11-9.84l8.37-6.9a48.69,48.69,0,0,0,3.4,3.67,33.26,33.26,0,0,0,4.9,3.75,5,5,0,0,0,5.94-.15c2.27-1.69,2.66-3.77,1-6.05a23.08,23.08,0,0,0-7-5.65,29,29,0,0,1-8-6.73c-3.92-4.94-4.55-10.44-2.49-16.27a12.79,12.79,0,0,1,18.78-6A35.65,35.65,0,0,1,377.4,1305.85Z"/><path d="M760.15,1318.63,743,1314.05l-2,7.68,10.29,2.79-1.53,5.52-9-2.33L738,1338l19.28,5.21-1.49,7.76-30.5-3.51,8.84-43.08,24.77,2Z"/><path d="M600.44,1351.24l5.74-37.1,10.75,2.4-8,37.76Z"/><path d="M280.46,1348.52l-4.91-63.37c6.24-.07,7.92-.66,14.21-.73l1.5,65.32Z"/><path d="M595.88,1316.64,584.18,1318c-.18,7.55,1.65,24.58,1.47,32.14l-11,.36c.61-8.28-.78-26.08-.16-34.46l-12.76-1.41c.3-2.7.55-5.24.9-7.77,0-.27.68-.63,1.06-.64,7.64-.2,15.28-.36,22.91-.53,1.71,0,3.41-.14,5.12-.12a1.37,1.37,0,0,1,1.07.63C593.88,1309.62,594.83,1313,595.88,1316.64Z"/><path d="M791.56,1324.93l5,10.08-9.43,4.6-8-12.3-1.46,17.46-11.46.81,2.58-46.07c2.43-.35,4.85-.76,7.29-1,5.33-.58,10.68-1,16,.12a28.21,28.21,0,0,1,6.48,2.22c7.66,3.76,8.3,16.78-.4,21.32C796.06,1323.22,793.83,1324,791.56,1324.93Zm-11.85-7.47a67.37,67.37,0,0,0,7.53-1.17c2.53-.68,3.38-2.87,2.21-5.23a5.68,5.68,0,0,0-2.13-2.32,10.6,10.6,0,0,0-6.44-1.08Z"/><path d="M526.07,1354.84l-5.44-53.3,11.31-1c.37,4-.28,16-.28,16l13-16.15,7.64,1.37-15.94,25.39,21.23,11-5.84,7.51L532.89,1337l4.38,15.49Z"/><path d="M381.74,1306.41l2.18-10.72,40.77,5.94-2.12,9.53h-9l-6.11,26.66-9.44-1.08,4-27.47Z"/><path d="M472.66,1312.28s-1.17,17.08,0,23.5c1,5.69,3.86,12.15,9.5,15.25,4.67,2.56,15.51,1.46,20.5-1,4.65-2.27,7.5-10,6.75-17.68-.46-4.69-3.42-20.11-3.42-20.11l-12.25,2.21s2.69,17.19,2.13,20.63c-.74,4.47-6,5.63-8.87,3.38s-2.42-8.65-2.67-10.9,0-14.48,0-14.48Z"/></g><g id="Vert"><polygon class="cls-4" points="77.72 1829.77 93.07 1829.77 93.07 1715.61 77.72 1715.61 77.72 1829.77 77.72 1829.77"/><polygon class="cls-4" points="99.12 1773.09 103.19 1773.09 103.19 1715.61 99.12 1715.61 99.12 1773.09 99.12 1773.09"/><polygon class="cls-4" points="107.64 1773.09 111.7 1773.09 111.7 1715.61 107.64 1715.61 107.64 1773.09 107.64 1773.09"/><path class="cls-4" d="M291.78,1715.62l-21.83,103.17H244.17V1715.68h-8.55v0h-28.8v11h12.49v92.18h-9.13V1773H198.6v-7.06H184.54v-35H198.6v-15.36H149.23v0H134.62v114.09h19.87v-48.46h14.69v48.46h15.36v-48.46h13.69v48.46h86.39v-11h-5l22.06-103.17Zm-137.29,50.33v-35h14.69v35Zm68.89,52.84v-92.18h5.43v92.18Z"/><polygon class="cls-4" points="351.99 1829.78 328.68 1715.63 311.15 1715.63 311.16 1715.68 305.2 1715.68 305.2 1829.77 320.56 1829.77 320.56 1761.19 334.72 1829.78 351.99 1829.78 351.99 1829.78"/><path class="cls-4" d="M179.64,1860.14a3.28,3.28,0,0,1-3.56,3.54h-2.21v-15.11h2.24a3.29,3.29,0,0,1,3.53,3.54v8Zm4.69-.92V1853c0-4.79-2.56-8.2-8.25-8.2h-6.9v22.65h6.93c5.27,0,8.22-3.45,8.22-8.23Z"/><polygon class="cls-4" points="198.57 1867.46 187.75 1867.46 187.75 1844.8 198.28 1844.8 198.28 1848.58 192.44 1848.58 192.44 1853.79 198.11 1853.79 198.11 1857.56 192.44 1857.56 192.44 1863.68 198.57 1863.68 198.57 1867.46 198.57 1867.46"/><polygon class="cls-4" points="205.33 1867.46 205.33 1848.58 200.63 1848.58 200.63 1844.8 214.67 1844.8 214.64 1848.58 210.01 1848.58 210.01 1867.46 205.33 1867.46 205.33 1867.46"/><path class="cls-4" d="M236.6,1860.14a3.28,3.28,0,0,1-3.56,3.54h-2.21v-15.11h2.24a3.29,3.29,0,0,1,3.53,3.54v8Zm4.69-.92V1853c0-4.79-2.56-8.2-8.25-8.2h-6.9v22.65h6.93c5.27,0,8.22-3.45,8.22-8.23Z"/><path class="cls-4" d="M249.28,1858.68l1.54-9.22,1.74,9.22Zm4,3.74,1,5H259l-4.89-22.66h-6.43l-4.79,22.66h4.92l.82-5Z"/><polygon class="cls-4" points="261.48 1867.46 261.48 1844.8 267.13 1844.8 272.46 1859.39 272.46 1844.8 276.71 1844.8 276.71 1867.46 271.02 1867.46 265.73 1852.84 265.73 1867.46 261.48 1867.46 261.48 1867.46"/><path class="cls-4" d="M286.76,1867.67c-4.56,0-6.92-2-6.92-6.49v-1.24h4.69v1.11c0,1.8.39,3,2.2,3,1.08,0,2.23-.49,2.23-2.39,0-4.94-9.08-3.14-9.08-10.44a6.43,6.43,0,0,1,6.85-6.62c4.56,0,6.92,2.26,6.92,6.55v1.54H289v-1.47c0-2.13-.92-3-2.2-3-1.51,0-2.2.85-2.2,2.45,0,4.55,9.08,2.78,9.08,10.31,0,5.14-3.61,6.68-6.88,6.68Z"/><polygon class="cls-4" points="301.44 1867.46 296.75 1867.46 296.75 1844.8 301.44 1844.8 301.44 1854.97 306.16 1844.8 311.54 1844.8 305.97 1855.66 311.94 1867.46 306.59 1867.46 301.44 1856.8 301.44 1867.46 301.44 1867.46"/><polygon class="cls-4" points="324.9 1867.46 314.07 1867.46 314.07 1844.8 324.6 1844.8 324.6 1848.58 318.76 1848.58 318.76 1853.79 324.44 1853.79 324.44 1857.56 318.76 1857.56 318.76 1863.68 324.9 1863.68 324.9 1867.46 324.9 1867.46"/><polygon class="cls-4" points="341.73 1848.58 341.73 1853.79 347.54 1853.79 347.54 1857.56 341.73 1857.56 341.73 1867.46 337.04 1867.46 337.04 1844.8 349.01 1844.8 349.01 1848.58 341.73 1848.58 341.73 1848.58"/><polygon class="cls-4" points="356.17 1844.8 356.17 1867.46 351.48 1867.46 351.48 1844.8 356.17 1844.8 356.17 1844.8"/><polygon class="cls-4" points="359.62 1867.46 359.62 1844.8 364.31 1844.8 364.31 1863.68 371.06 1863.68 371.06 1867.46 359.62 1867.46 359.62 1867.46"/><polygon class="cls-4" points="389.98 1867.46 389.98 1849.65 386.08 1867.46 381.35 1867.46 377.74 1849.46 377.74 1867.46 373.53 1867.46 373.53 1844.8 380.99 1844.8 383.88 1860.94 386.76 1844.8 394.19 1844.8 394.19 1867.46 389.98 1867.46 389.98 1867.46"/><polygon class="cls-4" points="402.3 1844.8 402.3 1867.46 397.61 1867.46 397.61 1844.8 402.3 1844.8 402.3 1844.8"/><polygon class="cls-4" points="405.75 1867.46 405.75 1844.8 411.41 1844.8 416.74 1859.39 416.74 1844.8 420.98 1844.8 420.98 1867.46 415.3 1867.46 410 1852.84 410 1867.46 405.75 1867.46 405.75 1867.46"/><path class="cls-4" d="M431,1867.67c-4.56,0-6.92-2-6.92-6.49v-1.24h4.69v1.11c0,1.8.39,3,2.2,3,1.08,0,2.23-.49,2.23-2.39,0-4.94-9.08-3.14-9.08-10.44a6.43,6.43,0,0,1,6.85-6.62c4.56,0,6.92,2.26,6.92,6.55v1.54h-4.69v-1.47c0-2.13-.92-3-2.2-3-1.51,0-2.2.85-2.2,2.45,0,4.55,9.08,2.78,9.08,10.31,0,5.14-3.61,6.68-6.89,6.68Z"/><polygon class="cls-4" points="444.43 1867.46 444.43 1848.58 439.74 1848.58 439.74 1844.8 453.77 1844.8 453.74 1848.58 449.12 1848.58 449.12 1867.46 444.43 1867.46 444.43 1867.46"/><polygon class="cls-4" points="460.91 1844.8 460.91 1867.46 456.22 1867.46 456.22 1844.8 460.91 1844.8 460.91 1844.8"/><polygon class="cls-4" points="468.09 1867.46 468.09 1848.58 463.39 1848.58 463.39 1844.8 477.43 1844.8 477.4 1848.58 472.77 1848.58 472.77 1867.46 468.09 1867.46 468.09 1867.46"/><path class="cls-4" d="M487.62,1867.67c-4.56,0-7.74-2.36-7.74-7.86v-15h4.86v15.6c0,2.75.92,3.54,2.85,3.54s2.88-.79,2.88-3.54v-15.6h4.86v15c0,5.54-3.18,7.9-7.71,7.9Z"/><polygon class="cls-4" points="502.51 1867.46 502.51 1848.58 497.81 1848.58 497.81 1844.8 511.85 1844.8 511.82 1848.58 507.19 1848.58 507.19 1867.46 502.51 1867.46 502.51 1867.46"/><path d="M633.58,1850.05c.23-1.16.43-2.32.68-3.47A17.73,17.73,0,0,1,650.41,1833c10.72-.5,16.8,6.54,18.49,12.59.07.27.11.55.21,1.08-3,0-5.83,0-8.69,0-.28,0-.64-.38-.83-.68-3-4.82-7-6.41-11.43-4.5-4.24,1.84-6.55,7.21-5.17,12.12,1.05,3.74,3.31,6.38,7.27,7s7-1.1,9.12-4.57c.25-.42.79-.95,1.2-1,2.77-.09,5.54,0,8.55,0-1.86,6.55-5.79,10.84-12.08,12.72-11.2,3.33-21.93-3.93-23.2-15.55a3.31,3.31,0,0,0-.28-.75Z"/><path d="M927.38,1845.1c-3.17,0-6.17,0-9.17,0-.39,0-.87-.46-1.14-.83a8.23,8.23,0,0,0-8.37-3.38,8.73,8.73,0,0,0-7.1,5.68c-2.32,5.81.47,12.29,6.07,13.84,3.38.94,6.56.42,9.08-2.27a19.86,19.86,0,0,0,1.77-2.76H908.19v-6.87h20c1.15,7.14-2.44,16.89-13.68,19.56a18.11,18.11,0,0,1-21.94-13,17.44,17.44,0,0,1,13.07-21.53C914.93,1831.19,925.11,1836.51,927.38,1845.1Z"/><path d="M809.87,1867.8c-2.35,0-4.57.07-6.77,0a2.33,2.33,0,0,1-1.5-1c-3.69-5.73-7.33-11.49-11-17.24-.29-.45-.6-.89-1.15-1.71v19.91h-8.34v-34c2.41,0,4.82-.05,7.23.05.39,0,.81.71,1.1,1.16q5.51,8.71,11,17.44c.32.5.64,1,1.17,1.81v-20.38h8.25Z"/><path d="M965.69,1833.62c2.35,0,4.62-.06,6.88,0,.46,0,1,.59,1.32,1.05,3.73,5.84,7.41,11.7,11.11,17.56.26.42.55.82,1.05,1.57v-20.11h8.37v34c-2.42,0-4.84.05-7.25-.05-.39,0-.83-.68-1.12-1.13q-5.5-8.61-11-17.25c-.3-.47-.63-.92-1.15-1.69v20h-8.26Z"/><path d="M829.55,1867.72h-8.7v-34h8.59v12.48H840.6v-12.5h8.7v34H840.7v-13.45H829.55Z"/><path d="M855.44,1867.8c1.39-3.5,2.66-6.71,3.93-9.91,3-7.59,6-15.18,9-22.8a1.93,1.93,0,0,1,2.23-1.49c1.64.1,3.3,0,4.94.07a1.84,1.84,0,0,1,1.37.85q6.36,16.41,12.62,32.87s0,.11,0,.29H880c-.36-1.09-.83-2.29-1.15-3.52a1.42,1.42,0,0,0-1.69-1.2c-3.07.06-6.14.07-9.2,0a1.66,1.66,0,0,0-1.91,1.39c-1.08,3.48-1.13,3.47-4.74,3.47Zm20.68-12-3.56-11-.38.06-3.37,10.94Z"/><path d="M727.55,1857.16v10.54h-8.63v-34.29c5.81.22,11.57.06,17.22.76,6,.74,9.53,7.12,8.21,13.54s-5.3,9.29-12.64,9.44C730.41,1857.19,729.11,1857.16,727.55,1857.16Zm.16-15.87v8.19a49.1,49.1,0,0,0,5.52-.4c2-.36,2.9-1.75,2.87-3.82a3.36,3.36,0,0,0-2.92-3.62A53.85,53.85,0,0,0,727.72,1841.29Z"/><path d="M752.15,1833.67h19.19v7.64h-10.4v5.25H771v7.66H761v5.87h10.39v7.6h-19.2Z"/><path d="M936.75,1833.68h19.13v7.66H945.53v5.2h10.06v7.73H945.54v5.8h10.39v7.6H936.75Z"/><path d="M772.09,1803.48v18.88h-4.36V1810l-.32-.06-3.64,12.44c-.36,0-.64,0-.91.09-1.81.31-2.68-.34-3.12-2.24a80.05,80.05,0,0,0-3.2-10.22v12.35h-4.41v-18.87c2,0,3.89-.07,5.8.06.38,0,.9.75,1,1.24,1,3.36,2,6.74,3.05,10.41a10.28,10.28,0,0,0,.52-1.15c.9-3.11,1.82-6.2,2.64-9.33.25-.94.64-1.31,1.62-1.27C768.52,1803.53,770.22,1803.48,772.09,1803.48Z"/><path d="M859,1822.38v-18.62c3.22-.82,3.93-.55,5.59,2.09,1.78,2.83,3.57,5.66,5.57,8.82v-11.05h4.63v18.85a32.28,32.28,0,0,1-3.63,0,2.13,2.13,0,0,1-1.2-1c-2.07-3.18-4.09-6.38-6.39-10v11Z"/><path d="M798.51,1822.47v-19.19c3.52.24,7,.13,10.36.79,4,.78,6.36,5,6,9.51-.42,5.95-3.58,8.88-9.6,8.9Zm5-4.23c2.3,0,4.53.21,5.72-2a6.22,6.22,0,0,0-.33-6.77c-1.31-1.9-3.35-1.71-5.39-1.57Z"/><path d="M794.7,1822.47a30.5,30.5,0,0,0-3.3,0c-1.47.17-2.34-.23-2.63-1.81-.07-.38-.81-.83-1.3-.9-.94-.14-1.93,0-2.89-.06-1.67-.16-3,0-3.28,2.08,0,.25-.63.61-1,.63-1.41.07-2.83,0-4.43,0,.25-.76.43-1.38.67-2,2.06-5.22,4.2-10.4,6.15-15.66.6-1.62,1.69-1.33,2.83-1.35s2-.16,2.54,1.28c2,5.43,4.1,10.8,6.17,16.2C794.4,1821.37,794.5,1821.8,794.7,1822.47ZM785.37,1810H785l-1.75,5.76h3.9Z"/><path d="M820,1822.34v-18.72h10.69v4.09h-5.63v3h5.44V1815h-5.46v3.21h5.62v4.14Z"/><path d="M852.92,1822.4h-4.65v-18.78h4.65Z"/><circle class="cls-5" cx="813.8" cy="1655.12" r="135.69"/><circle class="cls-6" cx="848.9" cy="1581.24" r="17.52"/><circle class="cls-5" cx="693.51" cy="1850.41" r="18.01"/><text class="cls-7" transform="translate(237.27 390.72) scale(0.94 1)">Prototype Oktober 2017</text></g><g id="Layer_8" data-name="Layer 8"><path class="cls-8" d="M709.87,1050.49c0,66.11-119.71,170.09-187.65,146.24-73.32-25.74-119.64-77.94-129.74-160.6-8.42-68.91,61.28-157.59,151.63-163.93C606.67,867.81,709.87,958.44,709.87,1050.49Z"/><path class="cls-9" d="M500.15,981.26c-4.63,32.11,3.94,106.62,3.94,106.62.22,6.05,7.37,16.91,17.39,12.82,26.29-10.74,75.92-41.79,94.17-63.55,3.38-4,1.93-16.39-7.89-22.94C587,1000.35,545.68,979,524.85,967.49,514.84,962,501.82,969.7,500.15,981.26Z"/></g></svg>