<svg xmlns="http://www.w3.org/2000/svg" viewBox="0 0 1080 1920"><title>InstructionsButton</title><g id="Layer_4" data-name="Layer 4"><path d="M639.35,1344.58a52,52,0,0,1-6.13-.74c-6.45-1.54-10.31-5.82-11.85-12.13-2.73-11.16,3.69-24.12,14.25-28.61,9.53-4.05,17.83-2.32,23.82,6.83a24.7,24.7,0,0,1,4,17.23c-.78,6-4.22,10.17-9.27,13.2A30.39,30.39,0,0,1,639.35,1344.58Zm9.81-20.53a7.15,7.15,0,0,0-7.73-7.42,12.18,12.18,0,0,0-4.31,1.4c-3.42,1.82-4.63,4.82-3.84,8.9.6,3.09,2.18,4.35,6.28,5A8.17,8.17,0,0,0,649.16,1324Z"/><path d="M715.72,1343.79c-4.44.4-8.68.81-12.94,1.11a2.2,2.2,0,0,1-1.5-.83c-4-4.76-7.9-9.55-11.85-14.34a3.56,3.56,0,0,0-1.19-1c.23,1.39.45,2.78.7,4.17.94,5.18,1.86,10.36,2.87,15.52.22,1.15,0,1.59-1.18,1.81-3.18.6-6.33,1.34-9.69,2.07l-6.34-38.45,2.7-.52c3.75-.72,7.51-1.41,11.26-2.17a1.65,1.65,0,0,1,1.83.68c2.6,3.15,5.25,6.27,7.88,9.39.25.3.52.59,1,1.17-.07-2.5-.12-4.66-.19-6.82-.08-2.76-.14-5.52-.27-8.28a1.12,1.12,0,0,1,.88-1.15c3.47-.75,6.93-1.53,10.63-2.35Z"/><path d="M336.77,1337c-4.39-.74-8.6-1.41-12.8-2.19a2.2,2.2,0,0,1-1.24-1.18c-2.64-5.61-5.23-11.24-7.84-16.86a3.56,3.56,0,0,0-.89-1.27c-.13,1.4-.27,2.81-.37,4.21-.4,5.25-.82,10.49-1.14,15.74-.07,1.17-.4,1.54-1.6,1.46-3.23-.22-6.46-.3-9.9-.45l3.57-38.81,2.75.18c3.81.25,7.63.53,11.44.74a1.65,1.65,0,0,1,1.6,1.12c1.72,3.71,3.5,7.39,5.25,11.08.17.36.36.7.71,1.4.57-2.44,1.06-4.54,1.54-6.65.62-2.69,1.26-5.38,1.82-8.08a1.12,1.12,0,0,1,1.15-.89c3.54.15,7.09.27,10.88.41Z"/><path d="M457.22,1326.73l7.75,8.18-7.68,7.15L446,1332.63l3.69,17.13L439,1353.88,428,1309c2.22-1,4.42-2.14,6.68-3.1,4.93-2.11,9.92-4.08,15.32-4.54a28.21,28.21,0,0,1,6.84.23c8.43,1.37,12.83,13.64,5.83,20.52C461,1323.79,459.12,1325.16,457.22,1326.73ZM443.7,1323a67.37,67.37,0,0,0,6.86-3.31c2.22-1.39,2.4-3.73.59-5.65a5.68,5.68,0,0,0-2.71-1.6,10.6,10.6,0,0,0-6.48.84Z"/><path d="M377.4,1305.85l-7.07,7.53a17.13,17.13,0,0,0-1.47-1.44,28.45,28.45,0,0,0-3.7-2.65,3.81,3.81,0,0,0-4.84,5.57,16.86,16.86,0,0,0,3.66,3.51,47,47,0,0,0,5.64,3.16c3.47,1.76,6.72,3.82,8.25,7.58a16.09,16.09,0,0,1,1.21,5.73,17.69,17.69,0,0,1-4.05,11.75c-3.76,4.52-8.88,5.13-14.26,4.31a16.94,16.94,0,0,1-5.37-2c-4.37-2.38-7.79-5.88-11-9.84l8.37-6.9a48.69,48.69,0,0,0,3.4,3.67,33.26,33.26,0,0,0,4.9,3.75,5,5,0,0,0,5.94-.15c2.27-1.69,2.66-3.77,1-6.05a23.08,23.08,0,0,0-7-5.65,29,29,0,0,1-8-6.73c-3.92-4.94-4.55-10.44-2.49-16.27a12.79,12.79,0,0,1,18.78-6A35.65,35.65,0,0,1,377.4,1305.85Z"/><path d="M760.15,1318.63,743,1314.05l-2,7.68,10.29,2.79-1.53,5.52-9-2.33L738,1338l19.28,5.21-1.49,7.76-30.5-3.51,8.84-43.08,24.77,2Z"/><path d="M600.44,1351.24l5.74-37.1,10.75,2.4-8,37.76Z"/><path d="M280.46,1348.52l-4.91-63.37c6.24-.07,7.92-.66,14.21-.73l1.5,65.32Z"/><path d="M595.88,1316.64,584.18,1318c-.18,7.55,1.65,24.58,1.47,32.14l-11,.36c.61-8.28-.78-26.08-.16-34.46l-12.76-1.41c.3-2.7.55-5.24.9-7.77,0-.27.68-.63,1.06-.64,7.64-.2,15.28-.36,22.91-.53,1.71,0,3.41-.14,5.12-.12a1.37,1.37,0,0,1,1.07.63C593.88,1309.62,594.83,1313,595.88,1316.64Z"/><path d="M791.56,1324.93l5,10.08-9.43,4.6-8-12.3-1.46,17.46-11.46.81,2.58-46.07c2.43-.35,4.85-.76,7.29-1,5.33-.58,10.68-1,16,.12a28.21,28.21,0,0,1,6.48,2.22c7.66,3.76,8.3,16.78-.4,21.32C796.06,1323.22,793.83,1324,791.56,1324.93Zm-11.85-7.47a67.37,67.37,0,0,0,7.53-1.17c2.53-.68,3.38-2.87,2.21-5.23a5.68,5.68,0,0,0-2.13-2.32,10.6,10.6,0,0,0-6.44-1.08Z"/><path d="M526.07,1354.84l-5.44-53.3,11.31-1c.37,4-.28,16-.28,16l13-16.15,7.64,1.37-15.94,25.39,21.23,11-5.84,7.51L532.89,1337l4.38,15.49Z"/><path d="M381.74,1306.41l2.18-10.72,40.77,5.94-2.12,9.53h-9l-6.11,26.66-9.44-1.08,4-27.47Z"/><path d="M472.66,1312.28s-1.17,17.08,0,23.5c1,5.69,3.86,12.15,9.5,15.25,4.67,2.56,15.51,1.46,20.5-1,4.65-2.27,7.5-10,6.75-17.68-.46-4.69-3.42-20.11-3.42-20.11l-12.25,2.21s2.69,17.19,2.13,20.63c-.74,4.47-6,5.63-8.87,3.38s-2.42-8.65-2.67-10.9,0-14.48,0-14.48Z"/></g></svg>