<svg xmlns="http://www.w3.org/2000/svg" viewBox="0 0 1061.16 1920"><defs><style>.cls-1{fill:#8bc751;}.cls-2{fill:#f15a22;}.cls-3{fill:#fff;}</style></defs><title>StartButton</title><g id="Layer_4" data-name="Layer 4"><path class="cls-1" d="M194.91,832.16,211.66,679.6H245c-1.38,11.51-4.39,47.56-4.39,47.56L290,691.62l12.18,21.32-55.53,40.17L305,801.93l-20.87,17.51L233.58,791.1l-2.76,41.06Z"/><path class="cls-1" d="M805.48,690.15l26.91-4c.25,3.43.55,6.72.73,10q3.2,56.66,6.36,113.32c.49,8.75.8,17.51,1.43,26.24.17,2.3-.67,3-2.64,3.45-4.77,1.15-9.53,2.37-14.21,3.81a3.62,3.62,0,0,1-4.07-1.08q-20.46-19.58-41-39.1c-4.86-4.64-9.74-9.26-15.19-14.43l6.77,65.73L747.36,858l-10.7-108.2c3.45-1,6.91-1.95,10.39-2.87,5.48-1.46,11-2.77,16.45-4.38a3.37,3.37,0,0,1,4.16,1.28q22,26,44.12,52a9.82,9.82,0,0,0,3,2.61Z"/><path class="cls-1" d="M556.4,668.47c-17.65,3.48-5.9.66-23.49,4.13-.55-6-1.07-11.75-1.58-17.47-.44-5-1-10-1.26-15-.12-1.92-.91-2.64-2.71-2.93A85.52,85.52,0,0,1,518,635.3c-2.26-.64-3.36-.15-4.41,2.06-3.95,8.35-8.14,16.59-12.25,24.87-.38.76-.8,1.51-1.31,2.45l-22.6-12.87c4-7.22,8-14.27,11.92-21.3q14.64-26.08,29.25-52.16L541.87,575ZM520.9,618.3l6.12,1.45-.77-10.42-.55-.13Z"/><path class="cls-1" d="M391.24,797.8c-17.65,3.48-5.9.66-23.49,4.13-.55-6-1.07-11.75-1.58-17.47-.44-5-1-10-1.26-15-.12-1.92-.91-2.64-2.71-2.93a85.52,85.52,0,0,1-9.31-1.94c-2.26-.64-3.36-.15-4.41,2.06-3.95,8.35-8.14,16.59-12.25,24.87-.38.76-.8,1.51-1.31,2.45l-22.6-12.87c4-7.22,8-14.27,11.92-21.3q14.64-26.08,29.25-52.16l23.21-3.39Zm-35.5-50.16,6.12,1.45-.77-10.42-.55-.13Z"/><path class="cls-1" d="M478.36,816.67l-21.16-5.9s-8.91-44.42-9.63-45.53c-1.06,2.83-2.15,5.64-3.17,8.48L429,807.67c-6.53-2.28-13.16-4.29-20.17-6.54l29.41-78.07,5.57,1.93c7.73,2.69,15.44,5.42,23.2,8a3.53,3.53,0,0,1,2.66,3.23c1.44,8.63,3,17.24,4.55,25.85.15.83.34,1.65.68,3.29,2.55-4.71,4.76-8.78,7-12.85,2.78-5.16,5.61-10.31,8.3-15.52.72-1.39,1.45-1.78,2.93-1.3,7.23,2.33,14.48,4.59,22.21,7l12.55,81.85-24.62-1.3-5.35-43.17Z"/><path class="cls-1" d="M657.64,627.56l16.58,17.51-16.44,15.3L633.66,640.2l7.9,36.67-23,8.8-23.46-96c4.76-2.22,9.46-4.58,14.29-6.64,10.55-4.51,21.24-8.73,32.79-9.71a60.4,60.4,0,0,1,14.65.5c18,2.93,27.47,29.19,12.47,43.92C665.79,621.26,661.71,624.19,657.64,627.56Zm-28.93-7.91c5.32-2.51,10.29-4.33,14.69-7.08,4.76-3,5.13-8,1.25-12.09a12.15,12.15,0,0,0-5.8-3.43c-4.67-1-9.29-.12-13.87,1.8Z"/><path class="cls-1" d="M573,789V826.8l-24.41-2.6,1.76-106.85c3.63,0,7.06-.11,10.49,0,9.81.36,19.68.22,29.39,1.39,10.17,1.23,19.87,4.4,27.92,11.41,12.91,11.24,13.58,37.38-3.26,48.2-8.26,5.31-17.41,7.56-26.86,9C583.21,788.13,578.31,788.46,573,789Zm-.9-21.35c3.77,0,7.05.25,10.28-.06,4.4-.43,8.76-1.34,12.37-4.22,5.58-4.45,5.28-12.55-.8-16-7.22-4.12-15.14-3-23.12-2.94Z"/><path class="cls-1" d="M347.8,577.31l-18.39,12.26a36.67,36.67,0,0,0-2.37-3.71,60.91,60.91,0,0,0-6.44-7.33,7.59,7.59,0,0,0-9.85-.42c-3.23,2.39-4.65,6-3,9.68a36.1,36.1,0,0,0,5.92,9.1,100.68,100.68,0,0,0,10.22,9.34c6.39,5.36,12.17,11.22,13.52,19.81a34.45,34.45,0,0,1-.25,12.54,37.86,37.86,0,0,1-14.15,22.53c-10,7.6-21,6.39-31.82,2.06A36.25,36.25,0,0,1,281,656.42c-7.95-7.08-13.38-16-18.21-25.86l20.8-10.32a104.23,104.23,0,0,0,5.31,9.31,71.2,71.2,0,0,0,8.4,10.2c3.42,3.3,7.63,4.69,12.46,2.58,5.56-2.43,7.37-6.57,4.92-12.16-2.65-6-7.16-10.67-11.81-15.17-5.44-5.27-10.2-11-13.45-17.92-5.77-12.21-4.42-24,2.71-35.14,7.49-11.72,27.7-17.69,42.09-3.49A76.31,76.31,0,0,1,347.8,577.31Z"/><path class="cls-1" d="M715.93,752.87l-36.73-9.8-4.3,16.44,22,6-3.28,11.81-19.22-5-5.9,21.94,41.28,11.15-4.44,16.47-64-7.38,18.94-92.23,53,4.33Z"/><path class="cls-1" d="M696.34,590.82l4.66-23,87.29,12.72L783.74,601H764.49l-13.08,57.07-20.21-2.31,8.64-58.82Z"/><path class="cls-1" d="M456.1,609.46l-24.56,5.69,4.17,48.1-23.23,3.35-1.94-53.35H383.06c0-5.82-.06-11.28.1-16.74,0-.57,1.31-1.49,2.1-1.6,16.2-2.23,32.42-4.36,48.63-6.53,3.62-.48,7.23-1.1,10.87-1.46a2.93,2.93,0,0,1,2.43,1.09C450.19,595,453,602,456.1,609.46Z"/></g><g id="Layer_8" data-name="Layer 8"><path class="cls-2" d="M693.38,1050.49c0,66.11-119.71,170.09-187.65,146.24C432.4,1171,386.09,1118.79,376,1036.13c-8.42-68.91,61.28-157.59,151.63-163.93C590.17,867.81,693.38,958.44,693.38,1050.49Z"/><path class="cls-3" d="M483.66,981.26c-4.63,32.11,3.94,106.62,3.94,106.62.22,6.05,7.37,16.91,17.39,12.82,26.29-10.74,75.92-41.79,94.17-63.55,3.38-4,1.93-16.39-7.89-22.94-20.76-13.85-62.08-35.22-82.91-46.72C498.34,962,485.32,969.7,483.66,981.26Z"/></g></svg>